<svg xmlns="http://www.w3.org/2000/svg" xmlns:xlink="http://www.w3.org/1999/xlink" width="500" zoomAndPan="magnify" viewBox="0 0 375 374.999991" height="500" preserveAspectRatio="xMidYMid meet" version="1.0"><defs><g/><clipPath id="f47808fd96"><path d="M 133 156 L 140.25 156 L 140.25 173 L 133 173 Z M 133 156 " clip-rule="nonzero"/></clipPath><clipPath id="c57d67e77f"><path d="M 37.5 118.539062 L 85 118.539062 L 85 166 L 37.5 166 Z M 37.5 118.539062 " clip-rule="nonzero"/></clipPath><clipPath id="8d92e3aa86"><path d="M 94 118.539062 L 140.25 118.539062 L 140.25 166 L 94 166 Z M 94 118.539062 " clip-rule="nonzero"/></clipPath><clipPath id="51a2094037"><path d="M 37.5 174 L 85 174 L 85 222 L 37.5 222 Z M 37.5 174 " clip-rule="nonzero"/></clipPath><clipPath id="8ff29b638c"><path d="M 54 203 L 119 203 L 119 268.539062 L 54 268.539062 Z M 54 203 " clip-rule="nonzero"/></clipPath><clipPath id="9cb8be9648"><path d="M 138.515625 106.460938 L 142.382812 106.460938 L 142.382812 248.476562 L 138.515625 248.476562 Z M 138.515625 106.460938 " clip-rule="nonzero"/></clipPath><clipPath id="c9c8c479bc"><path d="M 140.449219 106.460938 C 141.515625 106.460938 142.382812 107.328125 142.382812 108.394531 L 142.382812 246.53125 C 142.382812 247.597656 141.515625 248.460938 140.449219 248.460938 C 139.382812 248.460938 138.515625 247.597656 138.515625 246.53125 L 138.515625 108.394531 C 138.515625 107.328125 139.382812 106.460938 140.449219 106.460938 Z M 140.449219 106.460938 " clip-rule="nonzero"/></clipPath></defs><path fill="#fe6f16" d="M 129.242188 192.757812 C 131.285156 191.265625 139.101562 190.535156 139.101562 190.535156 C 139.101562 190.535156 131.433594 188.957031 129.585938 187.246094 C 128.628906 186.351562 127.820312 185.425781 127.046875 184.371094 C 125.554688 182.328125 124.824219 174.503906 124.824219 174.503906 C 124.824219 174.503906 123.242188 182.175781 121.53125 184.023438 C 120.640625 184.984375 119.714844 185.789062 118.65625 186.5625 C 116.613281 188.054688 108.796875 188.785156 108.796875 188.785156 C 108.796875 188.785156 116.46875 190.363281 118.316406 192.074219 C 119.277344 192.96875 120.082031 193.894531 120.855469 194.949219 C 122.347656 196.992188 123.078125 204.816406 123.078125 204.816406 C 123.078125 204.816406 124.65625 197.144531 126.367188 195.296875 C 127.257812 194.335938 128.1875 193.527344 129.242188 192.757812 Z M 129.242188 192.757812 " fill-opacity="1" fill-rule="evenodd"/><g clip-path="url(#f47808fd96)"><path fill="#fe6f16" d="M 144.796875 165.769531 C 145.808594 164.882812 149.929688 164.128906 149.929688 164.128906 C 149.929688 164.128906 145.78125 163.648438 144.722656 162.828125 C 144.171875 162.398438 143.699219 161.945312 143.242188 161.417969 C 142.355469 160.402344 141.597656 156.285156 141.597656 156.285156 C 141.597656 156.285156 141.121094 160.433594 140.296875 161.492188 C 139.867188 162.042969 139.414062 162.515625 138.890625 162.972656 C 137.875 163.859375 133.757812 164.613281 133.757812 164.613281 C 133.757812 164.613281 137.90625 165.09375 138.960938 165.917969 C 139.511719 166.34375 139.984375 166.796875 140.445312 167.324219 C 141.332031 168.339844 142.085938 172.457031 142.085938 172.457031 C 142.085938 172.457031 142.5625 168.308594 143.386719 167.253906 C 143.816406 166.703125 144.269531 166.226562 144.796875 165.769531 Z M 144.796875 165.769531 " fill-opacity="1" fill-rule="evenodd"/></g><g clip-path="url(#c57d67e77f)"><path fill="#13497c" d="M 37.5 118.601562 L 84.417969 118.601562 L 84.417969 165.515625 L 37.5 165.515625 Z M 37.5 118.601562 " fill-opacity="1" fill-rule="nonzero"/></g><g clip-path="url(#8d92e3aa86)"><path fill="#13497c" d="M 140.925781 118.601562 L 94.015625 118.601562 L 94.015625 165.515625 L 117.390625 165.515625 L 140.925781 139.671875 Z M 140.925781 118.601562 " fill-opacity="1" fill-rule="nonzero"/></g><path fill="#13497c" d="M 94.015625 174.308594 L 94.015625 191.183594 L 109.378906 174.308594 Z M 94.015625 174.308594 " fill-opacity="1" fill-rule="nonzero"/><g clip-path="url(#51a2094037)"><path fill="#13497c" d="M 59.910156 207.441406 L 70.296875 196.042969 L 80.84375 205.648438 L 84.421875 201.722656 L 84.421875 174.308594 L 37.5 174.308594 L 37.5 221.226562 L 75.035156 221.226562 C 72.621094 219.027344 70.203125 216.835938 67.792969 214.636719 Z M 59.910156 207.441406 " fill-opacity="1" fill-rule="nonzero"/></g><g clip-path="url(#8ff29b638c)"><path fill="#fe6f16" d="M 55.5625 263.144531 C 54.75 263.992188 54.8125 265.097656 55.664062 265.890625 C 56.320312 266.5 56.976562 267.097656 57.640625 267.691406 C 58.515625 268.476562 59.65625 268.421875 60.453125 267.542969 C 60.855469 267.101562 61.21875 266.617188 61.605469 266.160156 C 65.71875 261.375 86.246094 237.453125 89.222656 234 C 89.34375 233.859375 89.652344 233.761719 89.835938 233.804688 C 91.738281 234.222656 93.546875 233.953125 95.261719 233.089844 C 95.71875 232.859375 95.992188 232.886719 96.378906 233.242188 C 102.410156 238.761719 108.46875 244.269531 114.519531 249.777344 C 114.714844 249.953125 114.902344 250.128906 115.097656 250.304688 C 116.140625 249.160156 117.121094 248.082031 118.105469 247 C 102.269531 232.578125 86.46875 218.191406 70.652344 203.78125 C 69.648438 204.882812 68.667969 205.960938 67.644531 207.085938 C 67.882812 207.304688 68.097656 207.496094 68.308594 207.691406 C 74.328125 213.175781 80.34375 218.65625 86.371094 224.125 C 86.757812 224.472656 86.816406 224.730469 86.621094 225.222656 C 85.929688 226.988281 85.832031 228.800781 86.386719 230.636719 C 86.449219 230.847656 86.351562 231.203125 86.195312 231.371094 " fill-opacity="1" fill-rule="evenodd"/></g><g clip-path="url(#9cb8be9648)"><g clip-path="url(#c9c8c479bc)"><path fill="#13497c" d="M 138.515625 106.460938 L 142.382812 106.460938 L 142.382812 248.460938 L 138.515625 248.460938 Z M 138.515625 106.460938 " fill-opacity="1" fill-rule="nonzero"/></g></g><g fill="#13497c" fill-opacity="1"><g transform="translate(142.381812, 156.777734)"><g><path d="M 14.015625 -25.171875 C 16.296875 -25.171875 18.273438 -24.789062 19.953125 -24.03125 C 21.628906 -23.28125 22.921875 -22.203125 23.828125 -20.796875 C 24.742188 -19.398438 25.203125 -17.753906 25.203125 -15.859375 C 25.203125 -13.960938 24.742188 -12.316406 23.828125 -10.921875 C 22.921875 -9.535156 21.628906 -8.460938 19.953125 -7.703125 C 18.273438 -6.953125 16.296875 -6.578125 14.015625 -6.578125 L 9.640625 -6.578125 L 9.640625 0 L 2.515625 0 L 2.515625 -25.171875 Z M 13.59375 -12.1875 C 15.050781 -12.1875 16.148438 -12.503906 16.890625 -13.140625 C 17.640625 -13.773438 18.015625 -14.679688 18.015625 -15.859375 C 18.015625 -17.023438 17.640625 -17.929688 16.890625 -18.578125 C 16.148438 -19.234375 15.050781 -19.5625 13.59375 -19.5625 L 9.640625 -19.5625 L 9.640625 -12.1875 Z M 13.59375 -12.1875 "/></g></g></g><g fill="#13497c" fill-opacity="1"><g transform="translate(168.870637, 156.777734)"><g><path d="M 8.703125 -17.15625 C 9.398438 -18.039062 10.304688 -18.703125 11.421875 -19.140625 C 12.535156 -19.585938 13.8125 -19.8125 15.25 -19.8125 L 15.25 -13.65625 C 14.625 -13.726562 14.109375 -13.765625 13.703125 -13.765625 C 12.234375 -13.765625 11.085938 -13.367188 10.265625 -12.578125 C 9.441406 -11.785156 9.03125 -10.578125 9.03125 -8.953125 L 9.03125 0 L 2.1875 0 L 2.1875 -19.484375 L 8.703125 -19.484375 Z M 8.703125 -17.15625 "/></g></g></g><g fill="#13497c" fill-opacity="1"><g transform="translate(184.792687, 156.777734)"><g><path d="M 2.1875 -19.484375 L 9.03125 -19.484375 L 9.03125 0 L 2.1875 0 Z M 5.609375 -21.75 C 4.546875 -21.75 3.6875 -22.082031 3.03125 -22.75 C 2.375 -23.425781 2.046875 -24.28125 2.046875 -25.3125 C 2.046875 -26.34375 2.378906 -27.1875 3.046875 -27.84375 C 3.722656 -28.5 4.578125 -28.828125 5.609375 -28.828125 C 6.640625 -28.828125 7.488281 -28.5 8.15625 -27.84375 C 8.832031 -27.1875 9.171875 -26.34375 9.171875 -25.3125 C 9.171875 -24.28125 8.832031 -23.425781 8.15625 -22.75 C 7.488281 -22.082031 6.640625 -21.75 5.609375 -21.75 Z M 5.609375 -21.75 "/></g></g></g><g fill="#13497c" fill-opacity="1"><g transform="translate(196.042354, 156.777734)"><g><path d="M 27.578125 -19.8125 C 29.972656 -19.8125 31.882812 -19.09375 33.3125 -17.65625 C 34.738281 -16.21875 35.453125 -14.046875 35.453125 -11.140625 L 35.453125 0 L 28.625 0 L 28.625 -10.03125 C 28.625 -11.394531 28.363281 -12.398438 27.84375 -13.046875 C 27.332031 -13.691406 26.609375 -14.015625 25.671875 -14.015625 C 24.640625 -14.015625 23.8125 -13.65625 23.1875 -12.9375 C 22.5625 -12.21875 22.25 -11.128906 22.25 -9.671875 L 22.25 0 L 15.421875 0 L 15.421875 -10.03125 C 15.421875 -12.6875 14.4375 -14.015625 12.46875 -14.015625 C 11.414062 -14.015625 10.578125 -13.65625 9.953125 -12.9375 C 9.335938 -12.21875 9.03125 -11.128906 9.03125 -9.671875 L 9.03125 0 L 2.1875 0 L 2.1875 -19.484375 L 8.703125 -19.484375 L 8.703125 -17.4375 C 9.421875 -18.226562 10.273438 -18.820312 11.265625 -19.21875 C 12.265625 -19.613281 13.351562 -19.8125 14.53125 -19.8125 C 15.894531 -19.8125 17.113281 -19.554688 18.1875 -19.046875 C 19.269531 -18.546875 20.144531 -17.78125 20.8125 -16.75 C 21.582031 -17.738281 22.550781 -18.492188 23.71875 -19.015625 C 24.894531 -19.546875 26.179688 -19.8125 27.578125 -19.8125 Z M 27.578125 -19.8125 "/></g></g></g><g fill="#13497c" fill-opacity="1"><g transform="translate(233.60114, 156.777734)"><g><path d="M 22.109375 -9.703125 C 22.109375 -9.660156 22.070312 -9.097656 22 -8.015625 L 7.84375 -8.015625 C 8.125 -7.003906 8.675781 -6.226562 9.5 -5.6875 C 10.332031 -5.15625 11.375 -4.890625 12.625 -4.890625 C 13.550781 -4.890625 14.359375 -5.019531 15.046875 -5.28125 C 15.734375 -5.550781 16.421875 -5.984375 17.109375 -6.578125 L 20.703125 -2.84375 C 18.816406 -0.726562 16.050781 0.328125 12.40625 0.328125 C 10.125 0.328125 8.117188 -0.101562 6.390625 -0.96875 C 4.671875 -1.832031 3.335938 -3.03125 2.390625 -4.5625 C 1.441406 -6.09375 0.96875 -7.832031 0.96875 -9.78125 C 0.96875 -11.695312 1.425781 -13.414062 2.34375 -14.9375 C 3.269531 -16.457031 4.546875 -17.648438 6.171875 -18.515625 C 7.804688 -19.378906 9.644531 -19.8125 11.6875 -19.8125 C 13.625 -19.8125 15.382812 -19.410156 16.96875 -18.609375 C 18.550781 -17.804688 19.800781 -16.640625 20.71875 -15.109375 C 21.644531 -13.585938 22.109375 -11.785156 22.109375 -9.703125 Z M 11.71875 -14.953125 C 10.664062 -14.953125 9.785156 -14.648438 9.078125 -14.046875 C 8.367188 -13.453125 7.921875 -12.640625 7.734375 -11.609375 L 15.71875 -11.609375 C 15.519531 -12.640625 15.066406 -13.453125 14.359375 -14.046875 C 13.648438 -14.648438 12.769531 -14.953125 11.71875 -14.953125 Z M 11.71875 -14.953125 "/></g></g></g><g fill="#fe6f16" fill-opacity="1"><g transform="translate(256.686492, 156.777734)"><g><path d="M 9.640625 -19.671875 L 9.640625 -14.125 L 20.75 -14.125 L 20.75 -8.625 L 9.640625 -8.625 L 9.640625 0 L 2.515625 0 L 2.515625 -25.171875 L 22.25 -25.171875 L 22.25 -19.671875 Z M 9.640625 -19.671875 "/></g></g></g><g fill="#fe6f16" fill-opacity="1"><g transform="translate(279.760881, 156.777734)"><g><path d="M 2.1875 -19.484375 L 9.03125 -19.484375 L 9.03125 0 L 2.1875 0 Z M 5.609375 -21.75 C 4.546875 -21.75 3.6875 -22.082031 3.03125 -22.75 C 2.375 -23.425781 2.046875 -24.28125 2.046875 -25.3125 C 2.046875 -26.34375 2.378906 -27.1875 3.046875 -27.84375 C 3.722656 -28.5 4.578125 -28.828125 5.609375 -28.828125 C 6.640625 -28.828125 7.488281 -28.5 8.15625 -27.84375 C 8.832031 -27.1875 9.171875 -26.34375 9.171875 -25.3125 C 9.171875 -24.28125 8.832031 -23.425781 8.15625 -22.75 C 7.488281 -22.082031 6.640625 -21.75 5.609375 -21.75 Z M 5.609375 -21.75 "/></g></g></g><g fill="#fe6f16" fill-opacity="1"><g transform="translate(291.010548, 156.777734)"><g><path d="M 14.5625 0 L 11.078125 -5.109375 L 7.328125 0 L -0.078125 0 L 7.328125 -9.75 L 0.140625 -19.484375 L 7.84375 -19.484375 L 11.296875 -14.5625 L 14.890625 -19.484375 L 22.109375 -19.484375 L 14.921875 -10 L 22.359375 0 Z M 14.5625 0 "/></g></g></g><g fill="#000000" fill-opacity="1"><g transform="translate(146.340405, 183.748994)"><g><path d="M 8.78125 0 L 6.40625 -3.34375 C 6.132812 -3.3125 5.859375 -3.296875 5.578125 -3.296875 L 2.78125 -3.296875 L 2.78125 0 L 1.6875 0 L 1.6875 -10.375 L 5.578125 -10.375 C 6.898438 -10.375 7.9375 -10.054688 8.6875 -9.421875 C 9.4375 -8.796875 9.8125 -7.929688 9.8125 -6.828125 C 9.8125 -6.015625 9.601562 -5.328125 9.1875 -4.765625 C 8.78125 -4.203125 8.195312 -3.800781 7.4375 -3.5625 L 9.984375 0 Z M 5.546875 -4.21875 C 6.578125 -4.21875 7.363281 -4.445312 7.90625 -4.90625 C 8.445312 -5.363281 8.71875 -6.003906 8.71875 -6.828125 C 8.71875 -7.660156 8.445312 -8.300781 7.90625 -8.75 C 7.363281 -9.207031 6.578125 -9.4375 5.546875 -9.4375 L 2.78125 -9.4375 L 2.78125 -4.21875 Z M 5.546875 -4.21875 "/></g></g></g><g fill="#000000" fill-opacity="1"><g transform="translate(155.60762, 183.748994)"><g><path d="M 8.265625 -3.578125 L 1.734375 -3.578125 C 1.796875 -2.765625 2.109375 -2.109375 2.671875 -1.609375 C 3.234375 -1.109375 3.941406 -0.859375 4.796875 -0.859375 C 5.285156 -0.859375 5.734375 -0.941406 6.140625 -1.109375 C 6.546875 -1.285156 6.894531 -1.546875 7.1875 -1.890625 L 7.78125 -1.203125 C 7.4375 -0.785156 7.003906 -0.46875 6.484375 -0.25 C 5.960938 -0.03125 5.394531 0.078125 4.78125 0.078125 C 3.976562 0.078125 3.265625 -0.09375 2.640625 -0.4375 C 2.023438 -0.78125 1.546875 -1.253906 1.203125 -1.859375 C 0.859375 -2.460938 0.6875 -3.144531 0.6875 -3.90625 C 0.6875 -4.664062 0.847656 -5.34375 1.171875 -5.9375 C 1.503906 -6.539062 1.957031 -7.007812 2.53125 -7.34375 C 3.113281 -7.6875 3.769531 -7.859375 4.5 -7.859375 C 5.21875 -7.859375 5.863281 -7.6875 6.4375 -7.34375 C 7.007812 -7.007812 7.457031 -6.546875 7.78125 -5.953125 C 8.113281 -5.359375 8.28125 -4.675781 8.28125 -3.90625 Z M 4.5 -6.953125 C 3.738281 -6.953125 3.101562 -6.710938 2.59375 -6.234375 C 2.09375 -5.753906 1.804688 -5.128906 1.734375 -4.359375 L 7.265625 -4.359375 C 7.191406 -5.128906 6.898438 -5.753906 6.390625 -6.234375 C 5.890625 -6.710938 5.257812 -6.953125 4.5 -6.953125 Z M 4.5 -6.953125 "/></g></g></g><g fill="#000000" fill-opacity="1"><g transform="translate(163.110327, 183.748994)"><g><path d="M 5.484375 -7.859375 C 6.210938 -7.859375 6.875 -7.691406 7.46875 -7.359375 C 8.0625 -7.023438 8.523438 -6.554688 8.859375 -5.953125 C 9.203125 -5.359375 9.375 -4.675781 9.375 -3.90625 C 9.375 -3.125 9.203125 -2.429688 8.859375 -1.828125 C 8.523438 -1.222656 8.0625 -0.753906 7.46875 -0.421875 C 6.882812 -0.0859375 6.222656 0.078125 5.484375 0.078125 C 4.847656 0.078125 4.273438 -0.0507812 3.765625 -0.3125 C 3.265625 -0.582031 2.847656 -0.96875 2.515625 -1.46875 L 2.515625 2.875 L 1.46875 2.875 L 1.46875 -7.796875 L 2.46875 -7.796875 L 2.46875 -6.25 C 2.789062 -6.769531 3.207031 -7.164062 3.71875 -7.4375 C 4.238281 -7.71875 4.828125 -7.859375 5.484375 -7.859375 Z M 5.40625 -0.859375 C 5.957031 -0.859375 6.453125 -0.984375 6.890625 -1.234375 C 7.335938 -1.484375 7.6875 -1.84375 7.9375 -2.3125 C 8.1875 -2.78125 8.3125 -3.3125 8.3125 -3.90625 C 8.3125 -4.5 8.1875 -5.023438 7.9375 -5.484375 C 7.6875 -5.941406 7.335938 -6.296875 6.890625 -6.546875 C 6.453125 -6.804688 5.957031 -6.9375 5.40625 -6.9375 C 4.851562 -6.9375 4.359375 -6.804688 3.921875 -6.546875 C 3.484375 -6.296875 3.132812 -5.941406 2.875 -5.484375 C 2.625 -5.023438 2.5 -4.5 2.5 -3.90625 C 2.5 -3.3125 2.625 -2.78125 2.875 -2.3125 C 3.132812 -1.84375 3.484375 -1.484375 3.921875 -1.234375 C 4.359375 -0.984375 4.851562 -0.859375 5.40625 -0.859375 Z M 5.40625 -0.859375 "/></g></g></g><g fill="#000000" fill-opacity="1"><g transform="translate(171.710292, 183.748994)"><g><path d="M 4.203125 -7.859375 C 5.210938 -7.859375 5.988281 -7.601562 6.53125 -7.09375 C 7.082031 -6.582031 7.359375 -5.828125 7.359375 -4.828125 L 7.359375 0 L 6.34375 0 L 6.34375 -1.21875 C 6.101562 -0.8125 5.753906 -0.492188 5.296875 -0.265625 C 4.835938 -0.0351562 4.289062 0.078125 3.65625 0.078125 C 2.789062 0.078125 2.097656 -0.128906 1.578125 -0.546875 C 1.066406 -0.960938 0.8125 -1.507812 0.8125 -2.1875 C 0.8125 -2.851562 1.050781 -3.390625 1.53125 -3.796875 C 2.007812 -4.203125 2.773438 -4.40625 3.828125 -4.40625 L 6.296875 -4.40625 L 6.296875 -4.875 C 6.296875 -5.550781 6.109375 -6.0625 5.734375 -6.40625 C 5.359375 -6.757812 4.8125 -6.9375 4.09375 -6.9375 C 3.59375 -6.9375 3.113281 -6.851562 2.65625 -6.6875 C 2.207031 -6.53125 1.820312 -6.304688 1.5 -6.015625 L 1.015625 -6.8125 C 1.410156 -7.144531 1.882812 -7.398438 2.4375 -7.578125 C 3 -7.765625 3.585938 -7.859375 4.203125 -7.859375 Z M 3.828125 -0.75 C 4.421875 -0.75 4.925781 -0.882812 5.34375 -1.15625 C 5.769531 -1.4375 6.085938 -1.832031 6.296875 -2.34375 L 6.296875 -3.625 L 3.859375 -3.625 C 2.523438 -3.625 1.859375 -3.15625 1.859375 -2.21875 C 1.859375 -1.769531 2.03125 -1.410156 2.375 -1.140625 C 2.71875 -0.878906 3.203125 -0.75 3.828125 -0.75 Z M 3.828125 -0.75 "/></g></g></g><g fill="#000000" fill-opacity="1"><g transform="translate(179.005408, 183.748994)"><g><path d="M 1.46875 -7.796875 L 2.515625 -7.796875 L 2.515625 0 L 1.46875 0 Z M 2 -9.359375 C 1.800781 -9.359375 1.632812 -9.425781 1.5 -9.5625 C 1.363281 -9.695312 1.296875 -9.863281 1.296875 -10.0625 C 1.296875 -10.257812 1.363281 -10.425781 1.5 -10.5625 C 1.632812 -10.707031 1.800781 -10.78125 2 -10.78125 C 2.195312 -10.78125 2.363281 -10.707031 2.5 -10.5625 C 2.644531 -10.425781 2.71875 -10.257812 2.71875 -10.0625 C 2.71875 -9.863281 2.644531 -9.695312 2.5 -9.5625 C 2.363281 -9.425781 2.195312 -9.359375 2 -9.359375 Z M 2 -9.359375 "/></g></g></g><g fill="#000000" fill-opacity="1"><g transform="translate(181.540796, 183.748994)"><g><path d="M 2.46875 -6.265625 C 2.71875 -6.796875 3.085938 -7.191406 3.578125 -7.453125 C 4.066406 -7.722656 4.671875 -7.859375 5.390625 -7.859375 L 5.390625 -6.828125 L 5.140625 -6.84375 C 4.328125 -6.84375 3.6875 -6.59375 3.21875 -6.09375 C 2.75 -5.59375 2.515625 -4.882812 2.515625 -3.96875 L 2.515625 0 L 1.46875 0 L 1.46875 -7.796875 L 2.46875 -7.796875 Z M 2.46875 -6.265625 "/></g></g></g><g fill="#000000" fill-opacity="1"><g transform="translate(186.033457, 183.748994)"><g/></g></g><g fill="#000000" fill-opacity="1"><g transform="translate(188.465053, 183.748994)"><g><path d="M 9.125 0.15625 L 7.6875 -1.3125 C 6.800781 -0.375 5.644531 0.09375 4.21875 0.09375 C 3.539062 0.09375 2.9375 -0.015625 2.40625 -0.234375 C 1.875 -0.460938 1.460938 -0.773438 1.171875 -1.171875 C 0.878906 -1.578125 0.734375 -2.035156 0.734375 -2.546875 C 0.734375 -3.171875 0.925781 -3.726562 1.3125 -4.21875 C 1.707031 -4.71875 2.382812 -5.238281 3.34375 -5.78125 C 2.84375 -6.289062 2.5 -6.726562 2.3125 -7.09375 C 2.125 -7.457031 2.03125 -7.84375 2.03125 -8.25 C 2.03125 -8.90625 2.265625 -9.4375 2.734375 -9.84375 C 3.210938 -10.25 3.851562 -10.453125 4.65625 -10.453125 C 5.394531 -10.453125 5.984375 -10.269531 6.421875 -9.90625 C 6.859375 -9.539062 7.078125 -9.035156 7.078125 -8.390625 C 7.078125 -7.878906 6.898438 -7.414062 6.546875 -7 C 6.203125 -6.59375 5.609375 -6.144531 4.765625 -5.65625 L 7.609375 -2.71875 C 7.921875 -3.28125 8.148438 -3.945312 8.296875 -4.71875 L 9.15625 -4.453125 C 8.96875 -3.515625 8.664062 -2.71875 8.25 -2.0625 L 9.734375 -0.53125 Z M 4.65625 -9.671875 C 4.144531 -9.671875 3.742188 -9.539062 3.453125 -9.28125 C 3.160156 -9.019531 3.015625 -8.679688 3.015625 -8.265625 C 3.015625 -7.953125 3.09375 -7.65625 3.25 -7.375 C 3.40625 -7.101562 3.71875 -6.726562 4.1875 -6.25 C 4.9375 -6.6875 5.453125 -7.054688 5.734375 -7.359375 C 6.023438 -7.671875 6.171875 -8.007812 6.171875 -8.375 C 6.171875 -8.769531 6.035156 -9.082031 5.765625 -9.3125 C 5.503906 -9.550781 5.132812 -9.671875 4.65625 -9.671875 Z M 4.265625 -0.78125 C 5.410156 -0.78125 6.34375 -1.171875 7.0625 -1.953125 L 3.921875 -5.171875 C 3.109375 -4.710938 2.546875 -4.289062 2.234375 -3.90625 C 1.921875 -3.53125 1.765625 -3.113281 1.765625 -2.65625 C 1.765625 -2.09375 1.992188 -1.640625 2.453125 -1.296875 C 2.910156 -0.953125 3.515625 -0.78125 4.265625 -0.78125 Z M 4.265625 -0.78125 "/></g></g></g><g fill="#000000" fill-opacity="1"><g transform="translate(196.931566, 183.748994)"><g/></g></g><g fill="#000000" fill-opacity="1"><g transform="translate(199.363164, 183.748994)"><g><path d="M 6.203125 0.09375 C 5.171875 0.09375 4.242188 -0.132812 3.421875 -0.59375 C 2.597656 -1.050781 1.945312 -1.679688 1.46875 -2.484375 C 1 -3.285156 0.765625 -4.1875 0.765625 -5.1875 C 0.765625 -6.1875 1 -7.085938 1.46875 -7.890625 C 1.945312 -8.703125 2.597656 -9.332031 3.421875 -9.78125 C 4.253906 -10.238281 5.1875 -10.46875 6.21875 -10.46875 C 6.988281 -10.46875 7.695312 -10.335938 8.34375 -10.078125 C 9 -9.828125 9.554688 -9.453125 10.015625 -8.953125 L 9.3125 -8.265625 C 8.5 -9.078125 7.476562 -9.484375 6.25 -9.484375 C 5.425781 -9.484375 4.675781 -9.296875 4 -8.921875 C 3.332031 -8.546875 2.804688 -8.03125 2.421875 -7.375 C 2.046875 -6.726562 1.859375 -6 1.859375 -5.1875 C 1.859375 -4.375 2.046875 -3.640625 2.421875 -2.984375 C 2.804688 -2.335938 3.332031 -1.828125 4 -1.453125 C 4.675781 -1.078125 5.425781 -0.890625 6.25 -0.890625 C 7.488281 -0.890625 8.507812 -1.304688 9.3125 -2.140625 L 10.015625 -1.4375 C 9.554688 -0.945312 9 -0.566406 8.34375 -0.296875 C 7.6875 -0.0351562 6.972656 0.09375 6.203125 0.09375 Z M 6.203125 0.09375 "/></g></g></g><g fill="#000000" fill-opacity="1"><g transform="translate(208.571067, 183.748994)"><g><path d="M 1.46875 -11 L 2.515625 -11 L 2.515625 0 L 1.46875 0 Z M 1.46875 -11 "/></g></g></g><g fill="#000000" fill-opacity="1"><g transform="translate(211.106458, 183.748994)"><g><path d="M 8.265625 -3.578125 L 1.734375 -3.578125 C 1.796875 -2.765625 2.109375 -2.109375 2.671875 -1.609375 C 3.234375 -1.109375 3.941406 -0.859375 4.796875 -0.859375 C 5.285156 -0.859375 5.734375 -0.941406 6.140625 -1.109375 C 6.546875 -1.285156 6.894531 -1.546875 7.1875 -1.890625 L 7.78125 -1.203125 C 7.4375 -0.785156 7.003906 -0.46875 6.484375 -0.25 C 5.960938 -0.03125 5.394531 0.078125 4.78125 0.078125 C 3.976562 0.078125 3.265625 -0.09375 2.640625 -0.4375 C 2.023438 -0.78125 1.546875 -1.253906 1.203125 -1.859375 C 0.859375 -2.460938 0.6875 -3.144531 0.6875 -3.90625 C 0.6875 -4.664062 0.847656 -5.34375 1.171875 -5.9375 C 1.503906 -6.539062 1.957031 -7.007812 2.53125 -7.34375 C 3.113281 -7.6875 3.769531 -7.859375 4.5 -7.859375 C 5.21875 -7.859375 5.863281 -7.6875 6.4375 -7.34375 C 7.007812 -7.007812 7.457031 -6.546875 7.78125 -5.953125 C 8.113281 -5.359375 8.28125 -4.675781 8.28125 -3.90625 Z M 4.5 -6.953125 C 3.738281 -6.953125 3.101562 -6.710938 2.59375 -6.234375 C 2.09375 -5.753906 1.804688 -5.128906 1.734375 -4.359375 L 7.265625 -4.359375 C 7.191406 -5.128906 6.898438 -5.753906 6.390625 -6.234375 C 5.890625 -6.710938 5.257812 -6.953125 4.5 -6.953125 Z M 4.5 -6.953125 "/></g></g></g><g fill="#000000" fill-opacity="1"><g transform="translate(218.609167, 183.748994)"><g><path d="M 4.203125 -7.859375 C 5.210938 -7.859375 5.988281 -7.601562 6.53125 -7.09375 C 7.082031 -6.582031 7.359375 -5.828125 7.359375 -4.828125 L 7.359375 0 L 6.34375 0 L 6.34375 -1.21875 C 6.101562 -0.8125 5.753906 -0.492188 5.296875 -0.265625 C 4.835938 -0.0351562 4.289062 0.078125 3.65625 0.078125 C 2.789062 0.078125 2.097656 -0.128906 1.578125 -0.546875 C 1.066406 -0.960938 0.8125 -1.507812 0.8125 -2.1875 C 0.8125 -2.851562 1.050781 -3.390625 1.53125 -3.796875 C 2.007812 -4.203125 2.773438 -4.40625 3.828125 -4.40625 L 6.296875 -4.40625 L 6.296875 -4.875 C 6.296875 -5.550781 6.109375 -6.0625 5.734375 -6.40625 C 5.359375 -6.757812 4.8125 -6.9375 4.09375 -6.9375 C 3.59375 -6.9375 3.113281 -6.851562 2.65625 -6.6875 C 2.207031 -6.53125 1.820312 -6.304688 1.5 -6.015625 L 1.015625 -6.8125 C 1.410156 -7.144531 1.882812 -7.398438 2.4375 -7.578125 C 3 -7.765625 3.585938 -7.859375 4.203125 -7.859375 Z M 3.828125 -0.75 C 4.421875 -0.75 4.925781 -0.882812 5.34375 -1.15625 C 5.769531 -1.4375 6.085938 -1.832031 6.296875 -2.34375 L 6.296875 -3.625 L 3.859375 -3.625 C 2.523438 -3.625 1.859375 -3.15625 1.859375 -2.21875 C 1.859375 -1.769531 2.03125 -1.410156 2.375 -1.140625 C 2.71875 -0.878906 3.203125 -0.75 3.828125 -0.75 Z M 3.828125 -0.75 "/></g></g></g><g fill="#000000" fill-opacity="1"><g transform="translate(225.904286, 183.748994)"><g><path d="M 5.4375 -7.859375 C 6.414062 -7.859375 7.191406 -7.570312 7.765625 -7 C 8.347656 -6.4375 8.640625 -5.609375 8.640625 -4.515625 L 8.640625 0 L 7.59375 0 L 7.59375 -4.421875 C 7.59375 -5.234375 7.390625 -5.847656 6.984375 -6.265625 C 6.578125 -6.691406 6 -6.90625 5.25 -6.90625 C 4.40625 -6.90625 3.738281 -6.65625 3.25 -6.15625 C 2.757812 -5.65625 2.515625 -4.96875 2.515625 -4.09375 L 2.515625 0 L 1.46875 0 L 1.46875 -7.796875 L 2.46875 -7.796875 L 2.46875 -6.359375 C 2.757812 -6.835938 3.160156 -7.207031 3.671875 -7.46875 C 4.179688 -7.726562 4.769531 -7.859375 5.4375 -7.859375 Z M 5.4375 -7.859375 "/></g></g></g><g fill="#000000" fill-opacity="1"><g transform="translate(234.489422, 183.748994)"><g><path d="M 1.46875 -7.796875 L 2.515625 -7.796875 L 2.515625 0 L 1.46875 0 Z M 2 -9.359375 C 1.800781 -9.359375 1.632812 -9.425781 1.5 -9.5625 C 1.363281 -9.695312 1.296875 -9.863281 1.296875 -10.0625 C 1.296875 -10.257812 1.363281 -10.425781 1.5 -10.5625 C 1.632812 -10.707031 1.800781 -10.78125 2 -10.78125 C 2.195312 -10.78125 2.363281 -10.707031 2.5 -10.5625 C 2.644531 -10.425781 2.71875 -10.257812 2.71875 -10.0625 C 2.71875 -9.863281 2.644531 -9.695312 2.5 -9.5625 C 2.363281 -9.425781 2.195312 -9.359375 2 -9.359375 Z M 2 -9.359375 "/></g></g></g><g fill="#000000" fill-opacity="1"><g transform="translate(237.024813, 183.748994)"><g><path d="M 5.4375 -7.859375 C 6.414062 -7.859375 7.191406 -7.570312 7.765625 -7 C 8.347656 -6.4375 8.640625 -5.609375 8.640625 -4.515625 L 8.640625 0 L 7.59375 0 L 7.59375 -4.421875 C 7.59375 -5.234375 7.390625 -5.847656 6.984375 -6.265625 C 6.578125 -6.691406 6 -6.90625 5.25 -6.90625 C 4.40625 -6.90625 3.738281 -6.65625 3.25 -6.15625 C 2.757812 -5.65625 2.515625 -4.96875 2.515625 -4.09375 L 2.515625 0 L 1.46875 0 L 1.46875 -7.796875 L 2.46875 -7.796875 L 2.46875 -6.359375 C 2.757812 -6.835938 3.160156 -7.207031 3.671875 -7.46875 C 4.179688 -7.726562 4.769531 -7.859375 5.4375 -7.859375 Z M 5.4375 -7.859375 "/></g></g></g><g fill="#000000" fill-opacity="1"><g transform="translate(245.609944, 183.748994)"><g><path d="M 8.6875 -7.796875 L 8.6875 -0.953125 C 8.6875 0.367188 8.363281 1.347656 7.71875 1.984375 C 7.070312 2.628906 6.097656 2.953125 4.796875 2.953125 C 4.066406 2.953125 3.378906 2.84375 2.734375 2.625 C 2.085938 2.414062 1.5625 2.125 1.15625 1.75 L 1.6875 0.953125 C 2.0625 1.285156 2.519531 1.546875 3.0625 1.734375 C 3.601562 1.921875 4.171875 2.015625 4.765625 2.015625 C 5.753906 2.015625 6.476562 1.785156 6.9375 1.328125 C 7.40625 0.867188 7.640625 0.15625 7.640625 -0.8125 L 7.640625 -1.8125 C 7.304688 -1.3125 6.875 -0.929688 6.34375 -0.671875 C 5.820312 -0.421875 5.238281 -0.296875 4.59375 -0.296875 C 3.863281 -0.296875 3.195312 -0.457031 2.59375 -0.78125 C 2 -1.101562 1.53125 -1.550781 1.1875 -2.125 C 0.851562 -2.707031 0.6875 -3.363281 0.6875 -4.09375 C 0.6875 -4.820312 0.851562 -5.472656 1.1875 -6.046875 C 1.53125 -6.617188 2 -7.0625 2.59375 -7.375 C 3.1875 -7.695312 3.851562 -7.859375 4.59375 -7.859375 C 5.257812 -7.859375 5.859375 -7.722656 6.390625 -7.453125 C 6.921875 -7.191406 7.351562 -6.804688 7.6875 -6.296875 L 7.6875 -7.796875 Z M 4.703125 -1.234375 C 5.265625 -1.234375 5.769531 -1.351562 6.21875 -1.59375 C 6.675781 -1.832031 7.03125 -2.171875 7.28125 -2.609375 C 7.539062 -3.046875 7.671875 -3.539062 7.671875 -4.09375 C 7.671875 -4.644531 7.539062 -5.132812 7.28125 -5.5625 C 7.03125 -6 6.679688 -6.335938 6.234375 -6.578125 C 5.785156 -6.816406 5.273438 -6.9375 4.703125 -6.9375 C 4.140625 -6.9375 3.628906 -6.816406 3.171875 -6.578125 C 2.722656 -6.347656 2.375 -6.015625 2.125 -5.578125 C 1.875 -5.140625 1.75 -4.644531 1.75 -4.09375 C 1.75 -3.539062 1.875 -3.046875 2.125 -2.609375 C 2.375 -2.171875 2.722656 -1.832031 3.171875 -1.59375 C 3.628906 -1.351562 4.140625 -1.234375 4.703125 -1.234375 Z M 4.703125 -1.234375 "/></g></g></g><g fill="#000000" fill-opacity="1"><g transform="translate(254.328527, 183.748994)"><g/></g></g><g fill="#000000" fill-opacity="1"><g transform="translate(256.760125, 183.748994)"><g><path d="M 3.5625 0.078125 C 2.925781 0.078125 2.316406 -0.0078125 1.734375 -0.1875 C 1.160156 -0.375 0.710938 -0.609375 0.390625 -0.890625 L 0.859375 -1.71875 C 1.179688 -1.457031 1.585938 -1.242188 2.078125 -1.078125 C 2.578125 -0.921875 3.097656 -0.84375 3.640625 -0.84375 C 4.347656 -0.84375 4.867188 -0.953125 5.203125 -1.171875 C 5.546875 -1.398438 5.71875 -1.71875 5.71875 -2.125 C 5.71875 -2.40625 5.625 -2.628906 5.4375 -2.796875 C 5.25 -2.960938 5.007812 -3.085938 4.71875 -3.171875 C 4.4375 -3.253906 4.0625 -3.332031 3.59375 -3.40625 C 2.957031 -3.53125 2.445312 -3.648438 2.0625 -3.765625 C 1.675781 -3.890625 1.347656 -4.097656 1.078125 -4.390625 C 0.804688 -4.691406 0.671875 -5.109375 0.671875 -5.640625 C 0.671875 -6.285156 0.941406 -6.816406 1.484375 -7.234375 C 2.023438 -7.648438 2.78125 -7.859375 3.75 -7.859375 C 4.25 -7.859375 4.75 -7.789062 5.25 -7.65625 C 5.757812 -7.519531 6.179688 -7.34375 6.515625 -7.125 L 6.046875 -6.28125 C 5.410156 -6.726562 4.644531 -6.953125 3.75 -6.953125 C 3.082031 -6.953125 2.578125 -6.832031 2.234375 -6.59375 C 1.890625 -6.363281 1.71875 -6.054688 1.71875 -5.671875 C 1.71875 -5.367188 1.8125 -5.128906 2 -4.953125 C 2.195312 -4.773438 2.4375 -4.644531 2.71875 -4.5625 C 3.007812 -4.476562 3.410156 -4.390625 3.921875 -4.296875 C 4.535156 -4.179688 5.03125 -4.0625 5.40625 -3.9375 C 5.78125 -3.820312 6.101562 -3.617188 6.375 -3.328125 C 6.644531 -3.046875 6.78125 -2.65625 6.78125 -2.15625 C 6.78125 -1.46875 6.492188 -0.921875 5.921875 -0.515625 C 5.359375 -0.117188 4.570312 0.078125 3.5625 0.078125 Z M 3.5625 0.078125 "/></g></g></g><g fill="#000000" fill-opacity="1"><g transform="translate(262.557636, 183.748994)"><g><path d="M 8.265625 -3.578125 L 1.734375 -3.578125 C 1.796875 -2.765625 2.109375 -2.109375 2.671875 -1.609375 C 3.234375 -1.109375 3.941406 -0.859375 4.796875 -0.859375 C 5.285156 -0.859375 5.734375 -0.941406 6.140625 -1.109375 C 6.546875 -1.285156 6.894531 -1.546875 7.1875 -1.890625 L 7.78125 -1.203125 C 7.4375 -0.785156 7.003906 -0.46875 6.484375 -0.25 C 5.960938 -0.03125 5.394531 0.078125 4.78125 0.078125 C 3.976562 0.078125 3.265625 -0.09375 2.640625 -0.4375 C 2.023438 -0.78125 1.546875 -1.253906 1.203125 -1.859375 C 0.859375 -2.460938 0.6875 -3.144531 0.6875 -3.90625 C 0.6875 -4.664062 0.847656 -5.34375 1.171875 -5.9375 C 1.503906 -6.539062 1.957031 -7.007812 2.53125 -7.34375 C 3.113281 -7.6875 3.769531 -7.859375 4.5 -7.859375 C 5.21875 -7.859375 5.863281 -7.6875 6.4375 -7.34375 C 7.007812 -7.007812 7.457031 -6.546875 7.78125 -5.953125 C 8.113281 -5.359375 8.28125 -4.675781 8.28125 -3.90625 Z M 4.5 -6.953125 C 3.738281 -6.953125 3.101562 -6.710938 2.59375 -6.234375 C 2.09375 -5.753906 1.804688 -5.128906 1.734375 -4.359375 L 7.265625 -4.359375 C 7.191406 -5.128906 6.898438 -5.753906 6.390625 -6.234375 C 5.890625 -6.710938 5.257812 -6.953125 4.5 -6.953125 Z M 4.5 -6.953125 "/></g></g></g><g fill="#000000" fill-opacity="1"><g transform="translate(270.060345, 183.748994)"><g><path d="M 2.46875 -6.265625 C 2.71875 -6.796875 3.085938 -7.191406 3.578125 -7.453125 C 4.066406 -7.722656 4.671875 -7.859375 5.390625 -7.859375 L 5.390625 -6.828125 L 5.140625 -6.84375 C 4.328125 -6.84375 3.6875 -6.59375 3.21875 -6.09375 C 2.75 -5.59375 2.515625 -4.882812 2.515625 -3.96875 L 2.515625 0 L 1.46875 0 L 1.46875 -7.796875 L 2.46875 -7.796875 Z M 2.46875 -6.265625 "/></g></g></g><g fill="#000000" fill-opacity="1"><g transform="translate(274.553004, 183.748994)"><g><path d="M 8.015625 -7.796875 L 4.546875 0 L 3.46875 0 L 0.015625 -7.796875 L 1.109375 -7.796875 L 4.03125 -1.15625 L 6.984375 -7.796875 Z M 8.015625 -7.796875 "/></g></g></g><g fill="#000000" fill-opacity="1"><g transform="translate(281.136383, 183.748994)"><g><path d="M 1.46875 -7.796875 L 2.515625 -7.796875 L 2.515625 0 L 1.46875 0 Z M 2 -9.359375 C 1.800781 -9.359375 1.632812 -9.425781 1.5 -9.5625 C 1.363281 -9.695312 1.296875 -9.863281 1.296875 -10.0625 C 1.296875 -10.257812 1.363281 -10.425781 1.5 -10.5625 C 1.632812 -10.707031 1.800781 -10.78125 2 -10.78125 C 2.195312 -10.78125 2.363281 -10.707031 2.5 -10.5625 C 2.644531 -10.425781 2.71875 -10.257812 2.71875 -10.0625 C 2.71875 -9.863281 2.644531 -9.695312 2.5 -9.5625 C 2.363281 -9.425781 2.195312 -9.359375 2 -9.359375 Z M 2 -9.359375 "/></g></g></g><g fill="#000000" fill-opacity="1"><g transform="translate(283.671774, 183.748994)"><g><path d="M 4.703125 0.078125 C 3.929688 0.078125 3.238281 -0.0859375 2.625 -0.421875 C 2.019531 -0.765625 1.546875 -1.238281 1.203125 -1.84375 C 0.859375 -2.457031 0.6875 -3.144531 0.6875 -3.90625 C 0.6875 -4.664062 0.859375 -5.34375 1.203125 -5.9375 C 1.546875 -6.539062 2.019531 -7.007812 2.625 -7.34375 C 3.238281 -7.6875 3.929688 -7.859375 4.703125 -7.859375 C 5.367188 -7.859375 5.96875 -7.726562 6.5 -7.46875 C 7.03125 -7.207031 7.445312 -6.820312 7.75 -6.3125 L 6.96875 -5.78125 C 6.707031 -6.164062 6.378906 -6.453125 5.984375 -6.640625 C 5.585938 -6.835938 5.160156 -6.9375 4.703125 -6.9375 C 4.140625 -6.9375 3.628906 -6.8125 3.171875 -6.5625 C 2.722656 -6.3125 2.375 -5.953125 2.125 -5.484375 C 1.875 -5.023438 1.75 -4.5 1.75 -3.90625 C 1.75 -3.300781 1.875 -2.765625 2.125 -2.296875 C 2.375 -1.835938 2.722656 -1.484375 3.171875 -1.234375 C 3.628906 -0.984375 4.140625 -0.859375 4.703125 -0.859375 C 5.160156 -0.859375 5.585938 -0.953125 5.984375 -1.140625 C 6.378906 -1.328125 6.707031 -1.613281 6.96875 -2 L 7.75 -1.46875 C 7.445312 -0.96875 7.023438 -0.582031 6.484375 -0.3125 C 5.953125 -0.0507812 5.359375 0.078125 4.703125 0.078125 Z M 4.703125 0.078125 "/></g></g></g><g fill="#000000" fill-opacity="1"><g transform="translate(290.566541, 183.748994)"><g><path d="M 8.265625 -3.578125 L 1.734375 -3.578125 C 1.796875 -2.765625 2.109375 -2.109375 2.671875 -1.609375 C 3.234375 -1.109375 3.941406 -0.859375 4.796875 -0.859375 C 5.285156 -0.859375 5.734375 -0.941406 6.140625 -1.109375 C 6.546875 -1.285156 6.894531 -1.546875 7.1875 -1.890625 L 7.78125 -1.203125 C 7.4375 -0.785156 7.003906 -0.46875 6.484375 -0.25 C 5.960938 -0.03125 5.394531 0.078125 4.78125 0.078125 C 3.976562 0.078125 3.265625 -0.09375 2.640625 -0.4375 C 2.023438 -0.78125 1.546875 -1.253906 1.203125 -1.859375 C 0.859375 -2.460938 0.6875 -3.144531 0.6875 -3.90625 C 0.6875 -4.664062 0.847656 -5.34375 1.171875 -5.9375 C 1.503906 -6.539062 1.957031 -7.007812 2.53125 -7.34375 C 3.113281 -7.6875 3.769531 -7.859375 4.5 -7.859375 C 5.21875 -7.859375 5.863281 -7.6875 6.4375 -7.34375 C 7.007812 -7.007812 7.457031 -6.546875 7.78125 -5.953125 C 8.113281 -5.359375 8.28125 -4.675781 8.28125 -3.90625 Z M 4.5 -6.953125 C 3.738281 -6.953125 3.101562 -6.710938 2.59375 -6.234375 C 2.09375 -5.753906 1.804688 -5.128906 1.734375 -4.359375 L 7.265625 -4.359375 C 7.191406 -5.128906 6.898438 -5.753906 6.390625 -6.234375 C 5.890625 -6.710938 5.257812 -6.953125 4.5 -6.953125 Z M 4.5 -6.953125 "/></g></g></g><g fill="#000000" fill-opacity="1"><g transform="translate(298.06925, 183.748994)"><g><path d="M 3.5625 0.078125 C 2.925781 0.078125 2.316406 -0.0078125 1.734375 -0.1875 C 1.160156 -0.375 0.710938 -0.609375 0.390625 -0.890625 L 0.859375 -1.71875 C 1.179688 -1.457031 1.585938 -1.242188 2.078125 -1.078125 C 2.578125 -0.921875 3.097656 -0.84375 3.640625 -0.84375 C 4.347656 -0.84375 4.867188 -0.953125 5.203125 -1.171875 C 5.546875 -1.398438 5.71875 -1.71875 5.71875 -2.125 C 5.71875 -2.40625 5.625 -2.628906 5.4375 -2.796875 C 5.25 -2.960938 5.007812 -3.085938 4.71875 -3.171875 C 4.4375 -3.253906 4.0625 -3.332031 3.59375 -3.40625 C 2.957031 -3.53125 2.445312 -3.648438 2.0625 -3.765625 C 1.675781 -3.890625 1.347656 -4.097656 1.078125 -4.390625 C 0.804688 -4.691406 0.671875 -5.109375 0.671875 -5.640625 C 0.671875 -6.285156 0.941406 -6.816406 1.484375 -7.234375 C 2.023438 -7.648438 2.78125 -7.859375 3.75 -7.859375 C 4.25 -7.859375 4.75 -7.789062 5.25 -7.65625 C 5.757812 -7.519531 6.179688 -7.34375 6.515625 -7.125 L 6.046875 -6.28125 C 5.410156 -6.726562 4.644531 -6.953125 3.75 -6.953125 C 3.082031 -6.953125 2.578125 -6.832031 2.234375 -6.59375 C 1.890625 -6.363281 1.71875 -6.054688 1.71875 -5.671875 C 1.71875 -5.367188 1.8125 -5.128906 2 -4.953125 C 2.195312 -4.773438 2.4375 -4.644531 2.71875 -4.5625 C 3.007812 -4.476562 3.410156 -4.390625 3.921875 -4.296875 C 4.535156 -4.179688 5.03125 -4.0625 5.40625 -3.9375 C 5.78125 -3.820312 6.101562 -3.617188 6.375 -3.328125 C 6.644531 -3.046875 6.78125 -2.65625 6.78125 -2.15625 C 6.78125 -1.46875 6.492188 -0.921875 5.921875 -0.515625 C 5.359375 -0.117188 4.570312 0.078125 3.5625 0.078125 Z M 3.5625 0.078125 "/></g></g></g></svg>